<?xml version="1.0" encoding="UTF-8"?>
<svg id="Layer_1" data-name="Layer 1" xmlns="http://www.w3.org/2000/svg" width="268.78" height="72.04" viewBox="0 0 268.78 72.04">
  <defs>
    <style>
      .cls-1 {
        fill: #ff346e;
      }

      .cls-2 {
        fill: #1ea691;
      }

      .cls-3 {
        fill: #efb82e;
      }

      .cls-4 {
        fill: #fff;
      }

      .cls-5 {
        fill: #fa653c;
      }

      .cls-6 {
        fill: #3d46f2;
      }
    </style>
  </defs>
  <g id="Inverse_Color" data-name="Inverse Color">
    <g>
      <path class="cls-4" d="M98.7,22.69h-9.2v7.53h10.69v2.29h-13.49V11.27h13.35v2.29h-10.55v6.84h9.2v2.29h0Z"/>
      <path class="cls-4" d="M105.36,16.73l.09,1.98c1.2-1.52,2.78-2.27,4.73-2.27,3.34,0,5.02,1.88,5.05,5.65v10.43h-2.7v-10.45c-.01-1.14-.27-1.98-.78-2.52-.51-.55-1.31-.82-2.38-.82-.87,0-1.64.23-2.31.7s-1.18,1.08-1.55,1.84v11.25h-2.7v-15.78h2.55,0Z"/>
      <path class="cls-4" d="M122.5,12.9v3.82h2.95v2.09h-2.95v9.8c0,.63.13,1.11.39,1.42s.71.47,1.34.47c.31,0,.74-.06,1.28-.17v2.18c-.71.19-1.4.29-2.07.29-1.2,0-2.11-.36-2.73-1.09-.61-.73-.92-1.76-.92-3.11v-9.79h-2.87v-2.09h2.87v-3.82h2.7Z"/>
      <path class="cls-4" d="M135.78,19.15c-.41-.07-.85-.1-1.33-.1-1.77,0-2.97.75-3.6,2.26v11.2h-2.7v-15.78h2.62l.04,1.82c.89-1.41,2.14-2.11,3.76-2.11.52,0,.92.07,1.2.21v2.51h0Z"/>
      <path class="cls-4" d="M144.09,32.8c-2.14,0-3.88-.7-5.22-2.11s-2.01-3.28-2.01-5.64v-.5c0-1.57.3-2.96.9-4.19s1.43-2.19,2.51-2.89,2.24-1.04,3.49-1.04c2.05,0,3.65.68,4.79,2.03,1.14,1.35,1.71,3.29,1.71,5.81v1.12h-10.69c.04,1.56.49,2.81,1.36,3.77.87.96,1.98,1.44,3.32,1.44.95,0,1.76-.19,2.42-.58.66-.39,1.24-.9,1.74-1.55l1.65,1.28c-1.32,2.03-3.31,3.05-5.95,3.05h0ZM143.75,18.65c-1.09,0-2,.4-2.74,1.19-.74.79-1.2,1.9-1.37,3.33h7.91v-.21c-.08-1.37-.45-2.43-1.11-3.19s-1.56-1.13-2.69-1.13Z"/>
      <path class="cls-4" d="M166.25,24.79c0,2.4-.55,4.34-1.65,5.81-1.1,1.47-2.59,2.2-4.46,2.2s-3.42-.61-4.52-1.82v7.6h-2.7v-21.85h2.47l.13,1.75c1.1-1.36,2.62-2.04,4.58-2.04s3.4.72,4.5,2.14c1.11,1.43,1.65,3.42,1.65,5.97v.25h0ZM163.55,24.49c0-1.78-.38-3.18-1.14-4.22s-1.8-1.55-3.12-1.55c-1.63,0-2.86.73-3.68,2.18v7.54c.81,1.44,2.04,2.16,3.71,2.16,1.29,0,2.32-.51,3.09-1.54.76-1.03,1.14-2.55,1.14-4.57h0Z"/>
      <path class="cls-4" d="M176.86,19.15c-.41-.07-.85-.1-1.33-.1-1.77,0-2.97.75-3.6,2.26v11.2h-2.7v-15.78h2.62l.04,1.82c.89-1.41,2.14-2.11,3.76-2.11.52,0,.92.07,1.2.21v2.51h0Z"/>
      <path class="cls-4" d="M185.16,32.8c-2.14,0-3.88-.7-5.22-2.11s-2.01-3.28-2.01-5.64v-.5c0-1.57.3-2.96.9-4.19s1.43-2.19,2.51-2.89,2.24-1.04,3.49-1.04c2.05,0,3.65.68,4.79,2.03s1.71,3.29,1.71,5.81v1.12h-10.69c.04,1.56.49,2.81,1.36,3.77.87.96,1.98,1.44,3.32,1.44.95,0,1.76-.19,2.42-.58.66-.39,1.24-.9,1.74-1.55l1.65,1.28c-1.32,2.03-3.31,3.05-5.95,3.05h0ZM184.83,18.65c-1.09,0-2,.4-2.74,1.19-.74.79-1.2,1.9-1.37,3.33h7.91v-.21c-.08-1.37-.45-2.43-1.11-3.19s-1.56-1.13-2.69-1.13Z"/>
      <path class="cls-4" d="M196.55,16.73l.09,1.98c1.2-1.52,2.78-2.27,4.73-2.27,3.34,0,5.02,1.88,5.05,5.65v10.43h-2.7v-10.45c-.01-1.14-.27-1.98-.78-2.52-.51-.55-1.31-.82-2.38-.82-.87,0-1.64.23-2.31.7s-1.18,1.08-1.55,1.84v11.25h-2.7v-15.78h2.55,0Z"/>
      <path class="cls-4" d="M216.58,32.8c-2.14,0-3.88-.7-5.22-2.11s-2.01-3.28-2.01-5.64v-.5c0-1.57.3-2.96.9-4.19s1.43-2.19,2.51-2.89,2.24-1.04,3.49-1.04c2.05,0,3.65.68,4.79,2.03s1.71,3.29,1.71,5.81v1.12h-10.69c.04,1.56.49,2.81,1.36,3.77.87.96,1.98,1.44,3.32,1.44.95,0,1.76-.19,2.42-.58.66-.39,1.24-.9,1.74-1.55l1.65,1.28c-1.32,2.03-3.31,3.05-5.95,3.05h0ZM216.24,18.65c-1.09,0-2,.4-2.74,1.19-.74.79-1.2,1.9-1.37,3.33h7.91v-.21c-.08-1.37-.45-2.43-1.11-3.19s-1.56-1.13-2.69-1.13Z"/>
      <path class="cls-4" d="M235.15,30.95c-1.05,1.24-2.59,1.85-4.62,1.85-1.68,0-2.96-.49-3.84-1.47s-1.32-2.42-1.34-4.34v-10.27h2.7v10.2c0,2.39.97,3.59,2.92,3.59,2.06,0,3.43-.77,4.11-2.31v-11.48h2.7v15.78h-2.57l-.06-1.56Z"/>
      <path class="cls-4" d="M249.06,19.15c-.41-.07-.85-.1-1.33-.1-1.77,0-2.97.75-3.6,2.26v11.2h-2.7v-15.78h2.62l.04,1.82c.89-1.41,2.14-2.11,3.76-2.11.52,0,.92.07,1.2.21v2.51h0Z"/>
      <path class="cls-4" d="M260.28,28.32c0-.73-.28-1.3-.83-1.7-.55-.4-1.51-.75-2.87-1.04-1.37-.29-2.45-.64-3.25-1.05-.8-.41-1.4-.9-1.78-1.46-.38-.56-.58-1.24-.58-2.01,0-1.29.55-2.39,1.64-3.28s2.49-1.34,4.19-1.34c1.79,0,3.24.46,4.35,1.39,1.11.92,1.67,2.1,1.67,3.55h-2.71c0-.74-.31-1.37-.94-1.91-.63-.53-1.42-.8-2.37-.8s-1.75.21-2.31.64c-.55.43-.83.99-.83,1.68,0,.65.26,1.14.77,1.47.52.33,1.45.65,2.79.95,1.35.3,2.44.66,3.28,1.08.84.42,1.46.92,1.86,1.51s.61,1.31.61,2.15c0,1.41-.56,2.54-1.69,3.39-1.13.85-2.59,1.28-4.39,1.28-1.26,0-2.38-.22-3.35-.67-.97-.45-1.73-1.07-2.28-1.87-.55-.8-.83-1.67-.83-2.6h2.7c.05.9.41,1.62,1.09,2.15.68.53,1.57.79,2.68.79,1.02,0,1.84-.21,2.46-.62s.93-.96.93-1.65h0Z"/>
      <path class="cls-4" d="M266.24,17.25l-1.53-1.05c.9-1.26,1.37-2.6,1.4-4v-2.1h2.67v1.9c-.01.97-.25,1.94-.72,2.91-.47.97-1.08,1.75-1.82,2.34Z"/>
      <path class="cls-4" d="M103.03,50.88c0,2.08-.35,3.9-1.05,5.45-.7,1.55-1.69,2.73-2.98,3.55s-2.78,1.23-4.49,1.23-3.16-.41-4.45-1.23-2.3-1.99-3.01-3.51c-.72-1.52-1.08-3.28-1.1-5.29v-1.53c0-2.04.35-3.85,1.07-5.41.71-1.57,1.71-2.76,3.01-3.6,1.3-.83,2.78-1.25,4.46-1.25s3.2.41,4.5,1.23c1.3.82,2.3,2.01,3,3.57s1.05,3.38,1.05,5.45v1.34h0ZM100.25,49.51c0-2.52-.51-4.45-1.52-5.8-1.01-1.35-2.43-2.02-4.24-2.02s-3.16.67-4.18,2.02c-1.02,1.35-1.54,3.22-1.57,5.61v1.56c0,2.44.51,4.36,1.54,5.76,1.03,1.4,2.44,2.09,4.24,2.09s3.21-.66,4.2-1.98,1.5-3.21,1.53-5.67v-1.58h0Z"/>
      <path class="cls-4" d="M113.99,47.45c-.41-.07-.85-.1-1.33-.1-1.77,0-2.97.75-3.6,2.26v11.2h-2.7v-15.78h2.62l.04,1.82c.89-1.41,2.14-2.11,3.76-2.11.52,0,.92.07,1.2.21v2.51h0Z"/>
      <path class="cls-4" d="M115.11,52.79c0-2.46.57-4.42,1.71-5.87,1.14-1.45,2.65-2.18,4.52-2.18s3.43.68,4.51,2.04l.13-1.75h2.47v15.41c0,2.04-.61,3.65-1.82,4.83s-2.84,1.76-4.88,1.76c-1.14,0-2.25-.24-3.34-.73-1.09-.49-1.92-1.15-2.49-2l1.4-1.62c1.16,1.43,2.57,2.14,4.24,2.14,1.31,0,2.34-.37,3.07-1.11s1.1-1.78,1.1-3.12v-1.36c-1.08,1.24-2.55,1.87-4.42,1.87s-3.34-.74-4.48-2.23c-1.14-1.49-1.71-3.51-1.71-6.08h0ZM117.82,53.1c0,1.78.36,3.18,1.09,4.19s1.75,1.52,3.06,1.52c1.7,0,2.95-.77,3.75-2.32v-7.21c-.83-1.51-2.07-2.26-3.72-2.26-1.31,0-2.34.51-3.08,1.53s-1.11,2.53-1.11,4.54h0Z"/>
      <path class="cls-4" d="M141.81,60.81c-.16-.31-.28-.86-.38-1.66-1.25,1.3-2.75,1.96-4.49,1.96-1.56,0-2.83-.44-3.83-1.32-1-.88-1.49-1.99-1.49-3.35,0-1.64.62-2.92,1.87-3.83,1.25-.91,3.01-1.36,5.27-1.36h2.62v-1.24c0-.94-.28-1.69-.85-2.25s-1.4-.84-2.49-.84c-.96,0-1.77.24-2.42.73s-.98,1.07-.98,1.76h-2.71c0-.79.28-1.55.84-2.28s1.32-1.31,2.27-1.74,2.01-.64,3.16-.64c1.82,0,3.24.45,4.28,1.36,1.03.91,1.57,2.16,1.6,3.75v7.27c0,1.45.18,2.6.55,3.46v.23h-2.83ZM137.33,58.76c.85,0,1.65-.22,2.41-.66s1.31-1.01,1.65-1.71v-3.24h-2.11c-3.31,0-4.96.97-4.96,2.9,0,.85.28,1.51.85,1.98.56.48,1.29.72,2.18.72h0Z"/>
      <path class="cls-4" d="M150.42,45.03l.09,1.98c1.2-1.52,2.78-2.27,4.73-2.27,3.34,0,5.02,1.88,5.05,5.65v10.43h-2.7v-10.45c-.01-1.14-.27-1.98-.78-2.52-.51-.55-1.31-.82-2.38-.82-.87,0-1.64.23-2.31.7s-1.18,1.08-1.55,1.84v11.25h-2.7v-15.78h2.55,0Z"/>
      <path class="cls-4" d="M163.91,40.84c0-.44.13-.81.4-1.11s.66-.45,1.19-.45.92.15,1.2.45.41.67.41,1.11-.13.8-.41,1.09-.67.44-1.2.44-.92-.15-1.19-.44-.4-.66-.4-1.09ZM166.83,60.81h-2.7v-15.78h2.7v15.78Z"/>
      <path class="cls-4" d="M173.24,58.61h9.24v2.2h-12.53v-1.98l8.71-11.57h-8.58v-2.23h11.96v1.91l-8.8,11.67h0Z"/>
      <path class="cls-4" d="M194.8,60.81c-.16-.31-.28-.86-.38-1.66-1.25,1.3-2.75,1.96-4.49,1.96-1.56,0-2.83-.44-3.83-1.32-1-.88-1.49-1.99-1.49-3.35,0-1.64.62-2.92,1.87-3.83,1.25-.91,3.01-1.36,5.27-1.36h2.62v-1.24c0-.94-.28-1.69-.85-2.25s-1.4-.84-2.49-.84c-.96,0-1.77.24-2.42.73s-.98,1.07-.98,1.76h-2.71c0-.79.28-1.55.84-2.28s1.32-1.31,2.27-1.74,2.01-.64,3.16-.64c1.82,0,3.24.45,4.28,1.36,1.03.91,1.57,2.16,1.6,3.75v7.27c0,1.45.18,2.6.55,3.46v.23h-2.83ZM190.33,58.76c.85,0,1.65-.22,2.41-.66.76-.44,1.31-1.01,1.65-1.71v-3.24h-2.11c-3.31,0-4.96.97-4.96,2.9,0,.85.28,1.51.85,1.98.56.48,1.29.72,2.18.72h0Z"/>
      <path class="cls-4" d="M204.52,41.21v3.82h2.95v2.09h-2.95v9.8c0,.63.13,1.11.39,1.42s.71.47,1.34.47c.31,0,.74-.06,1.28-.17v2.18c-.71.19-1.4.29-2.07.29-1.2,0-2.11-.36-2.73-1.09-.61-.73-.92-1.76-.92-3.11v-9.79h-2.87v-2.09h2.87v-3.82h2.7Z"/>
      <path class="cls-4" d="M210.19,40.84c0-.44.13-.81.4-1.11s.66-.45,1.19-.45.92.15,1.2.45.41.67.41,1.11-.13.8-.41,1.09-.67.44-1.2.44-.92-.15-1.19-.44-.4-.66-.4-1.09ZM213.11,60.81h-2.7v-15.78h2.7v15.78Z"/>
      <path class="cls-4" d="M216.26,52.77c0-1.55.3-2.94.91-4.17.61-1.24,1.45-2.19,2.54-2.86,1.08-.67,2.32-1.01,3.71-1.01,2.15,0,3.89.74,5.21,2.23,1.33,1.49,1.99,3.47,1.99,5.94v.19c0,1.54-.29,2.92-.88,4.13-.59,1.22-1.43,2.17-2.52,2.85-1.09.68-2.35,1.02-3.77,1.02-2.14,0-3.87-.74-5.2-2.23-1.33-1.49-1.99-3.46-1.99-5.91v-.19h0ZM218.97,53.1c0,1.75.41,3.16,1.22,4.22s1.9,1.59,3.26,1.59,2.46-.54,3.27-1.61c.81-1.07,1.21-2.58,1.21-4.52,0-1.73-.41-3.14-1.23-4.21s-1.91-1.61-3.28-1.61-2.41.53-3.22,1.59-1.23,2.58-1.23,4.55h0Z"/>
      <path class="cls-4" d="M236.12,45.03l.09,1.98c1.2-1.52,2.78-2.27,4.73-2.27,3.34,0,5.02,1.88,5.05,5.65v10.43h-2.7v-10.45c-.01-1.14-.27-1.98-.78-2.52-.51-.55-1.31-.82-2.38-.82-.87,0-1.64.23-2.31.7s-1.18,1.08-1.55,1.84v11.25h-2.7v-15.78h2.55Z"/>
    </g>
    <g id="Icon">
      <path class="cls-1" d="M36.02,67.22c17.21,0,31.2-14,31.2-31.2S53.23,4.82,36.02,4.82,4.82,18.81,4.82,36.02c0,4.86,1.09,9.53,3.24,13.85.36.73,1.25,1.03,1.98.67.73-.36,1.03-1.25.67-1.98-1.94-3.91-2.93-8.13-2.93-12.54,0-15.57,12.67-28.24,28.24-28.24s28.24,12.67,28.24,28.24-12.67,28.24-28.24,28.24c-.82,0-1.48.66-1.48,1.48s.66,1.48,1.48,1.48"/>
      <path class="cls-5" d="M36.02,62.4c14.55,0,26.38-11.84,26.38-26.38s-11.84-26.38-26.38-26.38c-2.36,0-4.7.31-6.96.93-.79.22-1.25,1.03-1.04,1.82.22.79,1.03,1.25,1.82,1.04,2-.55,4.08-.82,6.18-.82,12.91,0,23.42,10.51,23.42,23.42s-10.51,23.42-23.42,23.42-23.42-10.51-23.42-23.42c0-2.09.28-4.17.82-6.17.22-.79-.25-1.6-1.04-1.82s-1.6.25-1.82,1.04c-.61,2.25-.92,4.59-.92,6.95,0,14.55,11.84,26.38,26.38,26.38"/>
      <path class="cls-3" d="M36.02,57.58c2.91,0,5.74-.57,8.39-1.7.75-.32,1.11-1.19.79-1.94s-1.19-1.11-1.94-.79c-2.29.97-4.73,1.46-7.24,1.46-10.26,0-18.6-8.34-18.6-18.6s8.34-18.6,18.6-18.6c7.49,0,14.22,4.46,17.14,11.36.32.75,1.19,1.11,1.94.79s1.11-1.19.79-1.94c-3.38-8-11.18-13.17-19.87-13.17-11.89,0-21.56,9.67-21.56,21.56s9.67,21.56,21.56,21.56"/>
      <path class="cls-2" d="M36.02,52.76c9.23,0,16.74-7.51,16.74-16.74s-7.51-16.74-16.74-16.74-16.74,7.51-16.74,16.74c0,2.6.58,5.1,1.73,7.41.36.73,1.25,1.03,1.98.67.73-.36,1.03-1.25.67-1.98-.94-1.91-1.42-3.96-1.42-6.1,0-7.6,6.18-13.78,13.78-13.78s13.78,6.18,13.78,13.78-6.18,13.78-13.78,13.78c-.82,0-1.48.66-1.48,1.48s.66,1.48,1.48,1.48"/>
      <path class="cls-6" d="M0,36.02C0,55.88,16.16,72.04,36.03,72.04s36.02-16.16,36.02-36.02c0-5.59-1.24-10.94-3.7-15.91-.36-.73-1.25-1.03-1.98-.67-.73.36-1.03,1.25-.67,1.98,2.25,4.56,3.39,9.48,3.39,14.61,0,18.23-14.83,33.06-33.06,33.06S2.96,54.25,2.96,36.02,17.79,2.96,36.02,2.96c4.41,0,8.7.85,12.73,2.54.75.32,1.62-.04,1.94-.8.32-.75-.04-1.62-.8-1.94-4.4-1.84-9.07-2.77-13.87-2.77C16.16,0,0,16.16,0,36.02"/>
    </g>
  </g>
</svg>