<?xml version="1.0" encoding="UTF-8"?>
<svg id="Layer_1" data-name="Layer 1" xmlns="http://www.w3.org/2000/svg" width="266.51" height="72.01" xmlns:xlink="http://www.w3.org/1999/xlink" viewBox="0 0 266.51 72.01">
  <defs>
    <style>
      .cls-1 {
        mask: url(#mask);
      }

      .cls-2 {
        fill: #160639;
      }

      .cls-3 {
        fill: #ff346e;
      }

      .cls-4 {
        fill: #1ea691;
      }

      .cls-5 {
        fill: #efb82e;
      }

      .cls-6 {
        fill: #fff;
      }

      .cls-7 {
        fill: #fa653c;
      }

      .cls-8 {
        fill: #3d46f2;
      }
    </style>
    <mask id="mask" x="0" y="0" width="71.99" height="72.01" maskUnits="userSpaceOnUse">
      <g id="mask0_3001_13116" data-name="mask0 3001 13116">
        <path class="cls-6" d="M36,72C16.15,72,0,55.85,0,36.01S16.15,0,36,0c4.8,0,9.47.93,13.86,2.77.75.31,1.11,1.18.8,1.93-.31.75-1.18,1.11-1.94.8-4.03-1.68-8.32-2.54-12.72-2.54C17.78,2.96,2.96,17.78,2.96,36.01s14.82,33.04,33.04,33.04,33.04-14.82,33.04-33.04c0-5.12-1.14-10.04-3.39-14.6-.36-.73-.06-1.62.67-1.98.73-.36,1.62-.06,1.98.67,2.45,4.97,3.7,10.32,3.7,15.9,0,19.85-16.15,36-36,36"/>
      </g>
    </mask>
  </defs>
  <g>
    <path class="cls-8" d="M36,72C16.15,72,0,55.85,0,36.01S16.15,0,36,0c4.8,0,9.47.93,13.86,2.77.75.31,1.11,1.18.8,1.93-.31.75-1.18,1.11-1.94.8-4.03-1.68-8.32-2.54-12.72-2.54C17.78,2.96,2.96,17.78,2.96,36.01s14.82,33.04,33.04,33.04,33.04-14.82,33.04-33.04c0-5.12-1.14-10.04-3.39-14.6-.36-.73-.06-1.62.67-1.98.73-.36,1.62-.06,1.98.67,2.45,4.97,3.7,10.32,3.7,15.9,0,19.85-16.15,36-36,36"/>
    <g class="cls-1">
      <path class="cls-8" d="M36,71.78c19.82,0,35.89-16.07,35.89-35.89S55.82,0,36,0,.11,16.07.11,35.89s16.07,35.89,35.89,35.89Z"/>
    </g>
    <path class="cls-3" d="M36,67.19c17.19,0,31.18-13.99,31.18-31.18S53.19,4.83,36,4.83,4.81,18.81,4.81,36.01c0,4.86,1.09,9.52,3.24,13.84.36.73,1.25,1.03,1.98.67.73-.36,1.03-1.25.67-1.98-1.94-3.91-2.93-8.13-2.93-12.53,0-15.56,12.66-28.22,28.22-28.22s28.22,12.66,28.22,28.22-12.66,28.22-28.22,28.22c-.82,0-1.48.66-1.48,1.48s.66,1.48,1.48,1.48"/>
    <path class="cls-7" d="M36,62.37c14.54,0,26.36-11.83,26.36-26.36s-11.83-26.36-26.36-26.36c-2.36,0-4.7.31-6.95.93-.79.22-1.25,1.03-1.04,1.82.22.79,1.03,1.25,1.82,1.04,2-.54,4.08-.82,6.17-.82,12.9,0,23.4,10.5,23.4,23.4s-10.5,23.41-23.4,23.41-23.41-10.5-23.41-23.41c0-2.1.28-4.17.82-6.17.22-.79-.25-1.6-1.04-1.82-.79-.21-1.6.25-1.82,1.04-.61,2.25-.92,4.59-.92,6.95,0,14.54,11.83,26.36,26.36,26.36"/>
    <path class="cls-5" d="M36,57.55c2.91,0,5.73-.57,8.39-1.69.75-.32,1.11-1.19.79-1.94-.32-.75-1.19-1.11-1.94-.79-2.29.97-4.72,1.46-7.24,1.46-10.25,0-18.59-8.34-18.59-18.59s8.34-18.59,18.59-18.59c7.49,0,14.21,4.46,17.13,11.35.32.75,1.19,1.1,1.94.79.75-.32,1.11-1.19.79-1.94-3.38-8-11.17-13.16-19.85-13.16-11.88,0-21.54,9.67-21.54,21.54s9.67,21.54,21.54,21.54Z"/>
    <path class="cls-4" d="M36,52.73c9.22,0,16.73-7.5,16.73-16.73s-7.5-16.73-16.73-16.73-16.73,7.5-16.73,16.73c0,2.6.58,5.09,1.73,7.41.36.73,1.25,1.03,1.98.67.73-.36,1.03-1.25.67-1.98-.94-1.91-1.42-3.96-1.42-6.1,0-7.59,6.18-13.77,13.77-13.77s13.77,6.18,13.77,13.77-6.18,13.77-13.77,13.77c-.82,0-1.48.66-1.48,1.48s.66,1.48,1.48,1.48"/>
  </g>
  <g>
    <path class="cls-2" d="M97.87,23.5h-9.13v7.46h10.6v2.27h-13.38V12.18h13.24v2.27h-10.46v6.78h9.13v2.27h0Z"/>
    <path class="cls-2" d="M104.47,17.59l.09,1.97c1.19-1.5,2.76-2.26,4.69-2.26,3.31,0,4.98,1.87,5.01,5.6v10.34h-2.68v-10.36c-.01-1.13-.27-1.96-.77-2.5-.51-.54-1.3-.81-2.36-.81-.87,0-1.63.23-2.29.7s-1.17,1.07-1.53,1.82v11.15h-2.68v-15.65h2.53,0Z"/>
    <path class="cls-2" d="M121.47,13.8v3.79h2.92v2.07h-2.92v9.72c0,.63.13,1.1.39,1.41s.7.47,1.33.47c.31,0,.73-.06,1.27-.17v2.16c-.7.19-1.39.29-2.05.29-1.19,0-2.1-.36-2.7-1.09-.61-.72-.91-1.75-.91-3.08v-9.71h-2.85v-2.07h2.85v-3.79h2.68Z"/>
    <path class="cls-2" d="M134.63,19.99c-.4-.07-.84-.1-1.32-.1-1.76,0-2.95.75-3.57,2.24v11.11h-2.68v-15.65h2.6l.04,1.81c.88-1.4,2.12-2.1,3.73-2.1.52,0,.92.07,1.19.2v2.49h0Z"/>
    <path class="cls-2" d="M142.87,33.53c-2.12,0-3.85-.7-5.18-2.09s-2-3.26-2-5.59v-.49c0-1.55.3-2.94.89-4.16s1.42-2.17,2.49-2.86,2.22-1.03,3.46-1.03c2.03,0,3.61.67,4.75,2.01,1.13,1.34,1.69,3.26,1.69,5.76v1.11h-10.6c.04,1.54.49,2.79,1.35,3.74.86.95,1.96,1.43,3.29,1.43.94,0,1.75-.19,2.4-.58.66-.39,1.23-.9,1.72-1.53l1.63,1.27c-1.31,2.02-3.28,3.02-5.9,3.02h0ZM142.54,19.5c-1.08,0-1.99.39-2.72,1.18-.73.79-1.19,1.89-1.36,3.31h7.84v-.2c-.08-1.36-.44-2.41-1.1-3.16s-1.54-1.12-2.66-1.12Z"/>
    <path class="cls-2" d="M164.84,25.59c0,2.38-.54,4.3-1.63,5.76-1.09,1.46-2.56,2.18-4.43,2.18s-3.39-.6-4.49-1.81v7.54h-2.68v-21.67h2.44l.13,1.74c1.09-1.35,2.6-2.03,4.54-2.03s3.37.71,4.46,2.13c1.1,1.42,1.64,3.39,1.64,5.92v.25h0ZM162.17,25.28c0-1.76-.38-3.16-1.13-4.18s-1.78-1.53-3.09-1.53c-1.62,0-2.83.72-3.65,2.16v7.48c.8,1.43,2.03,2.14,3.67,2.14,1.28,0,2.3-.51,3.06-1.52.76-1.02,1.13-2.53,1.13-4.53h0Z"/>
    <path class="cls-2" d="M175.36,19.99c-.4-.07-.84-.1-1.32-.1-1.76,0-2.95.75-3.57,2.24v11.11h-2.68v-15.65h2.6l.04,1.81c.88-1.4,2.12-2.1,3.73-2.1.52,0,.92.07,1.19.2v2.49h0Z"/>
    <path class="cls-2" d="M183.6,33.53c-2.12,0-3.85-.7-5.18-2.09s-2-3.26-2-5.59v-.49c0-1.55.3-2.94.89-4.16s1.42-2.17,2.49-2.86,2.22-1.03,3.46-1.03c2.03,0,3.61.67,4.75,2.01s1.69,3.26,1.69,5.76v1.11h-10.6c.04,1.54.49,2.79,1.35,3.74.86.95,1.96,1.43,3.29,1.43.94,0,1.75-.19,2.4-.58.66-.39,1.23-.9,1.72-1.53l1.63,1.27c-1.31,2.02-3.28,3.02-5.9,3.02h0ZM183.27,19.5c-1.08,0-1.99.39-2.72,1.18-.73.79-1.19,1.89-1.36,3.31h7.84v-.2c-.08-1.36-.44-2.41-1.1-3.16s-1.54-1.12-2.66-1.12Z"/>
    <path class="cls-2" d="M194.89,17.59l.09,1.97c1.19-1.5,2.76-2.26,4.69-2.26,3.31,0,4.98,1.87,5.01,5.6v10.34h-2.68v-10.36c-.01-1.13-.27-1.96-.77-2.5-.51-.54-1.3-.81-2.36-.81-.87,0-1.63.23-2.29.7s-1.17,1.07-1.53,1.82v11.15h-2.68v-15.65h2.53,0Z"/>
    <path class="cls-2" d="M214.75,33.53c-2.12,0-3.85-.7-5.18-2.09s-2-3.26-2-5.59v-.49c0-1.55.3-2.94.89-4.16s1.42-2.17,2.49-2.86,2.22-1.03,3.46-1.03c2.03,0,3.61.67,4.75,2.01s1.69,3.26,1.69,5.76v1.11h-10.6c.04,1.54.49,2.79,1.35,3.74.86.95,1.96,1.43,3.29,1.43.94,0,1.75-.19,2.4-.58.66-.39,1.23-.9,1.72-1.53l1.63,1.27c-1.31,2.02-3.28,3.02-5.9,3.02h0ZM214.42,19.5c-1.08,0-1.99.39-2.72,1.18-.73.79-1.19,1.89-1.36,3.31h7.84v-.2c-.08-1.36-.44-2.41-1.1-3.16s-1.54-1.12-2.66-1.12Z"/>
    <path class="cls-2" d="M233.17,31.69c-1.04,1.23-2.57,1.84-4.58,1.84-1.67,0-2.94-.48-3.81-1.45s-1.31-2.4-1.32-4.3v-10.18h2.68v10.11c0,2.37.97,3.56,2.89,3.56,2.04,0,3.4-.76,4.08-2.29v-11.38h2.68v15.65h-2.55l-.06-1.55Z"/>
    <path class="cls-2" d="M246.96,19.99c-.4-.07-.84-.1-1.32-.1-1.76,0-2.95.75-3.57,2.24v11.11h-2.68v-15.65h2.6l.04,1.81c.88-1.4,2.12-2.1,3.73-2.1.52,0,.92.07,1.19.2v2.49h0Z"/>
    <path class="cls-2" d="M258.08,29.09c0-.72-.27-1.29-.82-1.69-.54-.4-1.5-.74-2.85-1.03-1.36-.29-2.43-.64-3.22-1.04-.8-.4-1.38-.89-1.76-1.45-.38-.56-.57-1.23-.57-2,0-1.28.54-2.37,1.63-3.26s2.47-1.33,4.16-1.33c1.77,0,3.21.46,4.32,1.37,1.1.92,1.66,2.09,1.66,3.52h-2.69c0-.73-.31-1.36-.93-1.89-.62-.53-1.4-.8-2.35-.8s-1.74.21-2.29.64c-.55.43-.83.98-.83,1.66,0,.65.26,1.13.77,1.46.51.33,1.43.64,2.77.94,1.33.3,2.42.66,3.25,1.07.83.41,1.44.91,1.84,1.5s.6,1.3.6,2.13c0,1.4-.56,2.52-1.68,3.36-1.12.84-2.57,1.26-4.36,1.26-1.25,0-2.36-.22-3.33-.66-.97-.44-1.72-1.06-2.26-1.86-.54-.8-.82-1.66-.82-2.58h2.68c.05.9.41,1.61,1.08,2.13.67.53,1.56.79,2.66.79,1.01,0,1.83-.2,2.44-.61s.92-.96.92-1.64h0Z"/>
    <path class="cls-2" d="M263.99,18.11l-1.52-1.04c.9-1.25,1.36-2.57,1.39-3.96v-2.08h2.65v1.88c-.01.97-.25,1.92-.72,2.89-.47.96-1.07,1.74-1.8,2.32Z"/>
    <path class="cls-2" d="M102.16,51.45c0,2.07-.35,3.86-1.04,5.4-.7,1.54-1.68,2.71-2.95,3.52s-2.76,1.22-4.45,1.22-3.13-.41-4.41-1.22-2.28-1.98-2.99-3.48c-.71-1.51-1.07-3.26-1.09-5.24v-1.52c0-2.03.35-3.81,1.06-5.37.7-1.55,1.7-2.74,2.99-3.57,1.29-.83,2.76-1.24,4.42-1.24s3.18.41,4.46,1.22c1.29.81,2.28,2,2.97,3.54s1.04,3.35,1.04,5.4v1.33h0ZM99.4,50.09c0-2.5-.5-4.42-1.5-5.75-1-1.33-2.41-2-4.21-2s-3.14.67-4.14,2c-1.01,1.33-1.52,3.19-1.56,5.56v1.55c0,2.42.51,4.32,1.52,5.71,1.02,1.38,2.42,2.08,4.2,2.08s3.18-.65,4.17-1.96,1.49-3.18,1.52-5.62v-1.56h0Z"/>
    <path class="cls-2" d="M113.03,48.05c-.4-.07-.84-.1-1.32-.1-1.76,0-2.95.75-3.57,2.24v11.11h-2.68v-15.65h2.6l.04,1.81c.88-1.4,2.12-2.1,3.73-2.1.52,0,.92.07,1.19.2v2.49h0Z"/>
    <path class="cls-2" d="M114.13,53.35c0-2.44.57-4.38,1.69-5.82,1.13-1.44,2.62-2.16,4.49-2.16s3.4.67,4.47,2.03l.13-1.74h2.44v15.28c0,2.03-.6,3.62-1.8,4.79s-2.81,1.75-4.84,1.75c-1.13,0-2.23-.24-3.31-.72-1.08-.48-1.9-1.14-2.47-1.98l1.39-1.61c1.15,1.42,2.55,2.13,4.21,2.13,1.3,0,2.32-.37,3.05-1.1s1.09-1.76,1.09-3.09v-1.35c-1.07,1.23-2.53,1.85-4.38,1.85s-3.32-.74-4.45-2.21c-1.13-1.48-1.7-3.48-1.7-6.03h0ZM116.83,53.65c0,1.76.36,3.15,1.09,4.16s1.74,1.51,3.04,1.51c1.69,0,2.93-.77,3.72-2.3v-7.14c-.82-1.49-2.05-2.24-3.69-2.24-1.3,0-2.32.51-3.05,1.52s-1.1,2.51-1.1,4.5h0Z"/>
    <path class="cls-2" d="M140.61,61.3c-.15-.31-.28-.86-.38-1.65-1.24,1.29-2.73,1.94-4.45,1.94-1.54,0-2.81-.44-3.8-1.31-.99-.87-1.48-1.98-1.48-3.32,0-1.63.62-2.89,1.86-3.8,1.24-.9,2.98-1.35,5.23-1.35h2.6v-1.23c0-.93-.28-1.68-.84-2.23s-1.38-.83-2.47-.83c-.96,0-1.76.24-2.4.72s-.97,1.06-.97,1.75h-2.69c0-.78.28-1.53.83-2.26s1.31-1.3,2.26-1.73,2-.64,3.13-.64c1.8,0,3.22.45,4.24,1.35,1.02.9,1.55,2.14,1.59,3.72v7.2c0,1.44.18,2.58.55,3.43v.23h-2.81ZM136.17,59.27c.84,0,1.63-.22,2.38-.65s1.3-1,1.63-1.69v-3.21h-2.1c-3.28,0-4.92.96-4.92,2.88,0,.84.28,1.5.84,1.97.56.47,1.28.71,2.16.71h0Z"/>
    <path class="cls-2" d="M149.15,45.65l.09,1.97c1.19-1.5,2.76-2.26,4.69-2.26,3.31,0,4.98,1.87,5.01,5.6v10.34h-2.68v-10.36c-.01-1.13-.27-1.96-.77-2.5-.51-.54-1.3-.81-2.36-.81-.87,0-1.63.23-2.29.7s-1.17,1.07-1.53,1.82v11.15h-2.68v-15.65h2.53,0Z"/>
    <path class="cls-2" d="M162.53,41.5c0-.44.13-.8.4-1.1s.66-.45,1.18-.45.92.15,1.19.45.4.66.4,1.1-.13.79-.4,1.09-.66.44-1.19.44-.91-.14-1.18-.44-.4-.65-.4-1.09ZM165.42,61.3h-2.68v-15.65h2.68v15.65Z"/>
    <path class="cls-2" d="M171.78,59.12h9.16v2.18h-12.42v-1.97l8.63-11.47h-8.5v-2.21h11.86v1.89l-8.72,11.57h0Z"/>
    <path class="cls-2" d="M193.16,61.3c-.15-.31-.28-.86-.38-1.65-1.24,1.29-2.73,1.94-4.45,1.94-1.54,0-2.81-.44-3.8-1.31-.99-.87-1.48-1.98-1.48-3.32,0-1.63.62-2.89,1.86-3.8,1.24-.9,2.98-1.35,5.23-1.35h2.6v-1.23c0-.93-.28-1.68-.84-2.23s-1.38-.83-2.47-.83c-.96,0-1.76.24-2.4.72s-.97,1.06-.97,1.75h-2.69c0-.78.28-1.53.83-2.26s1.31-1.3,2.26-1.73,2-.64,3.13-.64c1.8,0,3.22.45,4.24,1.35,1.02.9,1.55,2.14,1.59,3.72v7.2c0,1.44.18,2.58.55,3.43v.23h-2.81ZM188.72,59.27c.84,0,1.63-.22,2.38-.65.75-.44,1.3-1,1.63-1.69v-3.21h-2.1c-3.28,0-4.92.96-4.92,2.88,0,.84.28,1.5.84,1.97.56.47,1.28.71,2.16.71h0Z"/>
    <path class="cls-2" d="M202.8,41.86v3.79h2.92v2.07h-2.92v9.72c0,.63.13,1.1.39,1.41s.7.47,1.33.47c.31,0,.73-.06,1.27-.17v2.16c-.7.19-1.39.29-2.05.29-1.19,0-2.1-.36-2.7-1.09-.61-.72-.91-1.75-.91-3.08v-9.71h-2.85v-2.07h2.85v-3.79h2.68Z"/>
    <path class="cls-2" d="M208.41,41.5c0-.44.13-.8.4-1.1s.66-.45,1.18-.45.92.15,1.19.45.4.66.4,1.1-.13.79-.4,1.09-.66.44-1.19.44-.91-.14-1.18-.44-.4-.65-.4-1.09ZM211.31,61.3h-2.68v-15.65h2.68v15.65Z"/>
    <path class="cls-2" d="M214.43,53.33c0-1.53.3-2.91.9-4.14.6-1.23,1.44-2.17,2.52-2.83,1.07-.66,2.3-1,3.68-1,2.13,0,3.85.74,5.17,2.21,1.32,1.48,1.97,3.44,1.97,5.89v.19c0,1.52-.29,2.89-.87,4.1-.58,1.21-1.42,2.15-2.5,2.83-1.09.67-2.33,1.01-3.74,1.01-2.12,0-3.84-.74-5.16-2.21-1.32-1.48-1.97-3.43-1.97-5.86v-.19h0ZM217.12,53.65c0,1.74.4,3.13,1.21,4.18s1.88,1.58,3.23,1.58,2.44-.53,3.24-1.6c.8-1.06,1.2-2.56,1.2-4.48,0-1.72-.41-3.11-1.22-4.17s-1.9-1.6-3.25-1.6-2.38.53-3.2,1.58-1.22,2.56-1.22,4.51h0Z"/>
    <path class="cls-2" d="M234.12,45.65l.09,1.97c1.19-1.5,2.76-2.26,4.69-2.26,3.31,0,4.98,1.87,5.01,5.6v10.34h-2.68v-10.36c-.01-1.13-.27-1.96-.77-2.5-.51-.54-1.3-.81-2.36-.81-.87,0-1.63.23-2.29.7s-1.17,1.07-1.53,1.82v11.15h-2.68v-15.65h2.53Z"/>
  </g>
</svg>