<?xml version="1.0" encoding="UTF-8"?>
<svg xmlns="http://www.w3.org/2000/svg" width="72" height="72" viewBox="0 0 72.01 72.01" xmlns:xlink="http://www.w3.org/1999/xlink">
  <defs>
    <style>
      .eo-1 { mask: url(#eomask); }
      .eo-blue { fill: #3d46f2; }
      .eo-pink { fill: #ff346e; }
      .eo-orange { fill: #fa653c; }
      .eo-yellow { fill: #efb82e; }
      .eo-teal { fill: #1ea691; }
      .eo-white { fill: #fff; }
    </style>
    <mask id="eomask" x="0" y="0" width="71.99" height="72.01" maskUnits="userSpaceOnUse">
      <g>
        <path class="eo-white" d="M36,72C16.15,72,0,55.85,0,36.01S16.15,0,36,0c4.8,0,9.47.93,13.86,2.77.75.31,1.11,1.18.8,1.93-.31.75-1.18,1.11-1.94.8-4.03-1.68-8.32-2.54-12.72-2.54C17.78,2.96,2.96,17.78,2.96,36.01s14.82,33.04,33.04,33.04,33.04-14.82,33.04-33.04c0-5.12-1.14-10.04-3.39-14.6-.36-.73-.06-1.62.67-1.98.73-.36,1.62-.06,1.98.67,2.45,4.97,3.7,10.32,3.7,15.9,0,19.85-16.15,36-36,36"/>
      </g>
    </mask>
  </defs>
  <g>
    <path class="eo-blue" d="M36,72C16.15,72,0,55.85,0,36.01S16.15,0,36,0c4.8,0,9.47.93,13.86,2.77.75.31,1.11,1.18.8,1.93-.31.75-1.18,1.11-1.94.8-4.03-1.68-8.32-2.54-12.72-2.54C17.78,2.96,2.96,17.78,2.96,36.01s14.82,33.04,33.04,33.04,33.04-14.82,33.04-33.04c0-5.12-1.14-10.04-3.39-14.6-.36-.73-.06-1.62.67-1.98.73-.36,1.62-.06,1.98.67,2.45,4.97,3.7,10.32,3.7,15.9,0,19.85-16.15,36-36,36"/>
    <g class="eo-1">
      <path class="eo-blue" d="M36,71.78c19.82,0,35.89-16.07,35.89-35.89S55.82,0,36,0,.11,16.07.11,35.89s16.07,35.89,35.89,35.89Z"/>
    </g>
    <path class="eo-pink" d="M36,67.19c17.19,0,31.18-13.99,31.18-31.18S53.19,4.83,36,4.83,4.81,18.81,4.81,36.01c0,4.86,1.09,9.52,3.24,13.84.36.73,1.25,1.03,1.98.67.73-.36,1.03-1.25.67-1.98-1.94-3.91-2.93-8.13-2.93-12.53,0-15.56,12.66-28.22,28.22-28.22s28.22,12.66,28.22,28.22-12.66,28.22-28.22,28.22c-.82,0-1.48.66-1.48,1.48s.66,1.48,1.48,1.48"/>
    <path class="eo-orange" d="M36,62.37c14.54,0,26.36-11.83,26.36-26.36s-11.83-26.36-26.36-26.36c-2.36,0-4.7.31-6.95.93-.79.22-1.25,1.03-1.04,1.82.22.79,1.03,1.25,1.82,1.04,2-.54,4.08-.82,6.17-.82,12.9,0,23.4,10.5,23.4,23.4s-10.5,23.41-23.4,23.41-23.41-10.5-23.41-23.41c0-2.1.28-4.17.82-6.17.22-.79-.25-1.6-1.04-1.82-.79-.21-1.6.25-1.82,1.04-.61,2.25-.92,4.59-.92,6.95,0,14.54,11.83,26.36,26.36,26.36"/>
    <path class="eo-yellow" d="M36,57.55c2.91,0,5.73-.57,8.39-1.69.75-.32,1.11-1.19.79-1.94-.32-.75-1.19-1.11-1.94-.79-2.29.97-4.72,1.46-7.24,1.46-10.25,0-18.59-8.34-18.59-18.59s8.34-18.59,18.59-18.59c7.49,0,14.21,4.46,17.13,11.35.32.75,1.19,1.1,1.94.79.75-.32,1.11-1.19.79-1.94-3.38-8-11.17-13.16-19.85-13.16-11.88,0-21.54,9.67-21.54,21.54s9.67,21.54,21.54,21.54Z"/>
    <path class="eo-teal" d="M36,52.73c9.22,0,16.73-7.5,16.73-16.73s-7.5-16.73-16.73-16.73-16.73,7.5-16.73,16.73c0,2.6.58,5.09,1.73,7.41.36.73,1.25,1.03,1.98.67.73-.36,1.03-1.25.67-1.98-.94-1.91-1.42-3.96-1.42-6.1,0-7.59,6.18-13.77,13.77-13.77s13.77,6.18,13.77,13.77-6.18,13.77-13.77,13.77c-.82,0-1.48.66-1.48,1.48s.66,1.48,1.48,1.48"/>
  </g>
</svg>
